<?xml version="1.0" encoding="UTF-8" standalone="no"?>
<!DOCTYPE svg PUBLIC "-//W3C//DTD SVG 1.1//EN"
 "http://www.w3.org/Graphics/SVG/1.1/DTD/svg11.dtd">
<!-- Generated by graphviz version 2.38.0 (20140413.2041)
 -->
<!-- Title: network Pages: 1 -->
<svg width="468pt" height="227pt"
 viewBox="0.00 0.00 468.00 227.00" xmlns="http://www.w3.org/2000/svg" xmlns:xlink="http://www.w3.org/1999/xlink">
<g id="graph0" class="graph" transform="scale(1 1) rotate(0) translate(4 223)">
<title>network</title>
<polygon fill="white" stroke="none" points="-4,4 -4,-223 464,-223 464,4 -4,4"/>
<!-- C -->
<g id="node1" class="node"><title>C</title>
<ellipse fill="lightgrey" stroke="black" cx="18" cy="-172" rx="18" ry="18"/>
<text text-anchor="middle" x="18" y="-168.3" font-family="Times New Roman,serif" font-size="14.00">C</text>
</g>
<!-- E -->
<g id="node2" class="node"><title>E</title>
<ellipse fill="lightgrey" stroke="black" cx="126" cy="-18" rx="18" ry="18"/>
<text text-anchor="middle" x="126" y="-14.3" font-family="Times New Roman,serif" font-size="14.00">E</text>
</g>
<!-- C&#45;&gt;E -->
<g id="edge1" class="edge"><title>C&#45;&gt;E</title>
<path fill="none" stroke="black" d="M27.9668,-156.973C46.6777,-130.639 87.2125,-73.5898 109.861,-41.7136"/>
<polygon fill="black" stroke="black" points="112.803,-43.6159 115.742,-33.4368 107.097,-39.5614 112.803,-43.6159"/>
<text text-anchor="middle" x="91.5" y="-76.8" font-family="Times New Roman,serif" font-size="14.00">2</text>
</g>
<!-- D -->
<g id="node3" class="node"><title>D</title>
<ellipse fill="lightgrey" stroke="black" cx="126" cy="-172" rx="18" ry="18"/>
<text text-anchor="middle" x="126" y="-168.3" font-family="Times New Roman,serif" font-size="14.00">D</text>
</g>
<!-- C&#45;&gt;D -->
<g id="edge2" class="edge"><title>C&#45;&gt;D</title>
<path fill="none" stroke="black" d="M36.3207,-172C53.179,-172 78.4349,-172 97.853,-172"/>
<polygon fill="black" stroke="black" points="97.9499,-175.5 107.95,-172 97.9498,-168.5 97.9499,-175.5"/>
<text text-anchor="middle" x="72" y="-178.8" font-family="Times New Roman,serif" font-size="14.00">3</text>
</g>
<!-- E&#45;&gt;D -->
<g id="edge3" class="edge"><title>E&#45;&gt;D</title>
<path fill="none" stroke="black" d="M126,-36.3114C126,-62.5289 126,-112.542 126,-143.696"/>
<polygon fill="black" stroke="black" points="122.5,-143.859 126,-153.859 129.5,-143.859 122.5,-143.859"/>
<text text-anchor="middle" x="129.5" y="-76.8" font-family="Times New Roman,serif" font-size="14.00">1</text>
</g>
<!-- G -->
<g id="node4" class="node"><title>G</title>
<ellipse fill="lightgrey" stroke="black" cx="234" cy="-18" rx="18" ry="18"/>
<text text-anchor="middle" x="234" y="-14.3" font-family="Times New Roman,serif" font-size="14.00">G</text>
</g>
<!-- E&#45;&gt;G -->
<g id="edge4" class="edge"><title>E&#45;&gt;G</title>
<path fill="none" stroke="black" d="M144.321,-18C161.179,-18 186.435,-18 205.853,-18"/>
<polygon fill="black" stroke="black" points="205.95,-21.5001 215.95,-18 205.95,-14.5001 205.95,-21.5001"/>
<text text-anchor="middle" x="180" y="-24.8" font-family="Times New Roman,serif" font-size="14.00">3</text>
</g>
<!-- F -->
<g id="node5" class="node"><title>F</title>
<ellipse fill="lightgrey" stroke="black" cx="234" cy="-172" rx="18" ry="18"/>
<text text-anchor="middle" x="234" y="-168.3" font-family="Times New Roman,serif" font-size="14.00">F</text>
</g>
<!-- E&#45;&gt;F -->
<g id="edge5" class="edge"><title>E&#45;&gt;F</title>
<path fill="none" stroke="black" d="M136.258,-33.4368C155.192,-60.0857 195.747,-117.162 218.21,-148.777"/>
<polygon fill="black" stroke="black" points="215.388,-150.848 224.033,-156.973 221.094,-146.794 215.388,-150.848"/>
<text text-anchor="middle" x="178.5" y="-76.8" font-family="Times New Roman,serif" font-size="14.00">2</text>
</g>
<!-- D&#45;&gt;F -->
<g id="edge6" class="edge"><title>D&#45;&gt;F</title>
<path fill="none" stroke="black" d="M144.321,-172C161.179,-172 186.435,-172 205.853,-172"/>
<polygon fill="black" stroke="black" points="205.95,-175.5 215.95,-172 205.95,-168.5 205.95,-175.5"/>
<text text-anchor="middle" x="180" y="-178.8" font-family="Times New Roman,serif" font-size="14.00">4</text>
</g>
<!-- H -->
<g id="node6" class="node"><title>H</title>
<ellipse fill="lightgrey" stroke="black" cx="342" cy="-18" rx="18" ry="18"/>
<text text-anchor="middle" x="342" y="-14.3" font-family="Times New Roman,serif" font-size="14.00">H</text>
</g>
<!-- G&#45;&gt;H -->
<g id="edge7" class="edge"><title>G&#45;&gt;H</title>
<path fill="none" stroke="black" d="M252.321,-18C269.179,-18 294.435,-18 313.853,-18"/>
<polygon fill="black" stroke="black" points="313.95,-21.5001 323.95,-18 313.95,-14.5001 313.95,-21.5001"/>
<text text-anchor="middle" x="288" y="-24.8" font-family="Times New Roman,serif" font-size="14.00">2</text>
</g>
<!-- F&#45;&gt;G -->
<g id="edge8" class="edge"><title>F&#45;&gt;G</title>
<path fill="none" stroke="black" d="M234,-153.859C234,-127.745 234,-77.743 234,-46.5073"/>
<polygon fill="black" stroke="black" points="237.5,-46.3114 234,-36.3114 230.5,-46.3115 237.5,-46.3114"/>
<text text-anchor="middle" x="237.5" y="-76.8" font-family="Times New Roman,serif" font-size="14.00">2</text>
</g>
<!-- F&#45;&gt;H -->
<g id="edge9" class="edge"><title>F&#45;&gt;H</title>
<path fill="none" stroke="black" d="M242.304,-155.801C247.428,-146.698 254.286,-134.992 261,-125 281.435,-94.587 307.547,-61.2818 324.516,-40.2739"/>
<polygon fill="black" stroke="black" points="327.38,-42.2988 330.97,-32.3306 321.947,-37.8846 327.38,-42.2988"/>
<text text-anchor="middle" x="301.5" y="-76.8" font-family="Times New Roman,serif" font-size="14.00">1</text>
</g>
<!-- legend1 -->
<g id="node7" class="node"><title>legend1</title>
<polygon fill="white" stroke="none" points="460,-219 270,-219 270,-125 460,-125 460,-219"/>
<text text-anchor="start" x="282" y="-199.8" font-family="monospace" font-size="14.00" fill="white"> &#160;&#160;&#160;&#160;&#160;&#160;&#160;&#160;&#160;&#160;&#160;&#160;&#160;&#160;&#160;&#160;&#160;&#160;&#160;</text>
<text text-anchor="start" x="282" y="-178.8" font-family="monospace" font-size="14.00" fill="white"> &#160;&#160;&#160;&#160;&#160;&#160;&#160;&#160;&#160;&#160;&#160;&#160;&#160;&#160;&#160;&#160;&#160;&#160;&#160;</text>
<text text-anchor="start" x="282" y="-157.8" font-family="monospace" font-size="14.00" fill="white"> &#160;&#160;&#160;&#160;&#160;&#160;&#160;&#160;&#160;&#160;&#160;&#160;&#160;&#160;&#160;&#160;&#160;&#160;&#160;</text>
<text text-anchor="start" x="282" y="-136.8" font-family="monospace" font-size="14.00" fill="white"> &#160;&#160;&#160;&#160;&#160;&#160;&#160;&#160;&#160;&#160;&#160;&#160;&#160;&#160;&#160;&#160;&#160;&#160;&#160;</text>
</g>
</g>
</svg>
